<?xml version="1.0" standalone="no"?>
<!DOCTYPE svg PUBLIC "-//W3C//DTD SVG 20010904//EN"
 "http://www.w3.org/TR/2001/REC-SVG-20010904/DTD/svg10.dtd">
<svg version="1.0" xmlns="http://www.w3.org/2000/svg"
 width="256.000000pt" height="256.000000pt" viewBox="0 0 256.000000 256.000000"
 preserveAspectRatio="xMidYMid meet">
<metadata>
Created by potrace 1.14, written by Peter Selinger 2001-2017
</metadata>
<g transform="translate(0.000000,256.000000) scale(0.100000,-0.100000)"
fill="#000000" stroke="none">
<path d="M1232 2421 c-81 -21 -143 -93 -157 -183 -5 -33 -9 -38 -33 -38 -42 0
-124 -43 -159 -83 -46 -52 -68 -135 -55 -201 6 -28 13 -58 16 -66 5 -11 -10
-25 -48 -48 -182 -109 -248 -349 -149 -546 50 -99 157 -188 260 -215 30 -8 47
-21 63 -46 26 -42 99 -91 149 -100 38 -6 39 -7 35 -43 -7 -61 -34 -412 -34
-438 0 -23 -3 -24 -69 -24 l-69 0 -4 65 c-5 80 -32 115 -87 115 -64 -1 -91
-38 -91 -125 l0 -56 -42 3 -43 3 -3 100 c-2 111 -12 138 -53 155 -36 15 -91
-2 -107 -33 -7 -12 -13 -67 -14 -122 l-3 -100 -138 -5 c-131 -5 -140 -6 -158
-29 -27 -33 -25 -86 6 -116 l24 -25 1011 0 1011 0 24 25 c31 30 33 82 4 119
l-20 26 -235 0 -234 0 0 90 c0 100 -15 151 -50 170 -29 16 -78 5 -107 -22 -21
-20 -23 -30 -23 -130 l0 -108 -105 0 c-97 0 -105 2 -105 19 0 25 -28 383 -35
437 -4 41 -3 42 28 48 54 10 135 63 162 106 15 23 33 40 44 40 10 0 50 16 89
35 178 89 267 283 218 475 -29 114 -114 225 -204 268 -23 11 -31 21 -26 31 27
65 26 140 -1 207 -30 73 -121 143 -187 144 -30 0 -42 16 -52 71 -9 49 -56 112
-98 132 -44 21 -104 28 -146 18z"/>
</g>
</svg>
